<mxfile host="app.diagrams.net" agent="Mozilla/5.0 (Windows NT 10.0; Win64; x64) AppleWebKit/537.36 (KHTML, like Gecko) Chrome/134.0.0.0 Safari/537.36" version="26.2.3" pages="10">
  <diagram name="Casos de uso" id="j_py7r9iKA-WeeERnU9l">
    <mxGraphModel grid="1" page="1" gridSize="10" guides="1" tooltips="1" connect="1" arrows="1" fold="1" pageScale="1" pageWidth="827" pageHeight="1169" math="0" shadow="0">
      <root>
        <mxCell id="0" />
        <mxCell id="1" parent="0" />
        <mxCell id="RNogtWUlpOYaWSuoND6M-2" value="Matricular" style="ellipse;whiteSpace=wrap;html=1;" vertex="1" parent="1">
          <mxGeometry x="220" y="190" width="140" height="70" as="geometry" />
        </mxCell>
        <mxCell id="RNogtWUlpOYaWSuoND6M-3" value="Aluno" style="shape=umlActor;verticalLabelPosition=bottom;verticalAlign=top;html=1;" vertex="1" parent="1">
          <mxGeometry x="110" y="310" width="30" height="60" as="geometry" />
        </mxCell>
        <mxCell id="RNogtWUlpOYaWSuoND6M-5" value="Agendar aulas" style="ellipse;whiteSpace=wrap;html=1;" vertex="1" parent="1">
          <mxGeometry x="220" y="305" width="140" height="70" as="geometry" />
        </mxCell>
        <mxCell id="RNogtWUlpOYaWSuoND6M-6" value="Consultar horários" style="ellipse;whiteSpace=wrap;html=1;" vertex="1" parent="1">
          <mxGeometry x="220" y="410" width="140" height="70" as="geometry" />
        </mxCell>
        <mxCell id="RNogtWUlpOYaWSuoND6M-10" value="Instrutor" style="shape=umlActor;verticalLabelPosition=bottom;verticalAlign=top;html=1;" vertex="1" parent="1">
          <mxGeometry x="730" y="315" width="30" height="60" as="geometry" />
        </mxCell>
        <mxCell id="RNogtWUlpOYaWSuoND6M-11" value="Criar treinos" style="ellipse;whiteSpace=wrap;html=1;" vertex="1" parent="1">
          <mxGeometry x="530" y="245" width="140" height="70" as="geometry" />
        </mxCell>
        <mxCell id="RNogtWUlpOYaWSuoND6M-12" value="Registrar frequência" style="ellipse;whiteSpace=wrap;html=1;" vertex="1" parent="1">
          <mxGeometry x="530" y="370" width="140" height="70" as="geometry" />
        </mxCell>
        <mxCell id="RNogtWUlpOYaWSuoND6M-17" value="Gerente" style="shape=umlActor;verticalLabelPosition=bottom;verticalAlign=top;html=1;" vertex="1" parent="1">
          <mxGeometry x="110" y="655" width="30" height="60" as="geometry" />
        </mxCell>
        <mxCell id="RNogtWUlpOYaWSuoND6M-19" value="Gerenciar Planos" style="ellipse;whiteSpace=wrap;html=1;" vertex="1" parent="1">
          <mxGeometry x="230" y="590" width="140" height="70" as="geometry" />
        </mxCell>
        <mxCell id="RNogtWUlpOYaWSuoND6M-21" value="Pagamentos" style="ellipse;whiteSpace=wrap;html=1;" vertex="1" parent="1">
          <mxGeometry x="220" y="721" width="140" height="70" as="geometry" />
        </mxCell>
        <mxCell id="7K6r8tHp7ERIAOB3K0ti-1" value="" style="endArrow=classic;html=1;rounded=0;" edge="1" parent="1">
          <mxGeometry width="50" height="50" relative="1" as="geometry">
            <mxPoint x="160" y="300" as="sourcePoint" />
            <mxPoint x="210" y="250" as="targetPoint" />
          </mxGeometry>
        </mxCell>
        <mxCell id="7K6r8tHp7ERIAOB3K0ti-2" value="" style="endArrow=classic;html=1;rounded=0;" edge="1" parent="1">
          <mxGeometry width="50" height="50" relative="1" as="geometry">
            <mxPoint x="160" y="342" as="sourcePoint" />
            <mxPoint x="200" y="342" as="targetPoint" />
          </mxGeometry>
        </mxCell>
        <mxCell id="7K6r8tHp7ERIAOB3K0ti-3" value="" style="endArrow=classic;html=1;rounded=0;" edge="1" parent="1">
          <mxGeometry width="50" height="50" relative="1" as="geometry">
            <mxPoint x="160" y="400" as="sourcePoint" />
            <mxPoint x="210" y="440" as="targetPoint" />
          </mxGeometry>
        </mxCell>
        <mxCell id="7K6r8tHp7ERIAOB3K0ti-4" value="" style="endArrow=classic;html=1;rounded=0;" edge="1" parent="1">
          <mxGeometry width="50" height="50" relative="1" as="geometry">
            <mxPoint x="719" y="318" as="sourcePoint" />
            <mxPoint x="679" y="298" as="targetPoint" />
          </mxGeometry>
        </mxCell>
        <mxCell id="7K6r8tHp7ERIAOB3K0ti-5" value="" style="endArrow=classic;html=1;rounded=0;" edge="1" parent="1">
          <mxGeometry width="50" height="50" relative="1" as="geometry">
            <mxPoint x="718" y="382" as="sourcePoint" />
            <mxPoint x="678" y="402" as="targetPoint" />
          </mxGeometry>
        </mxCell>
        <mxCell id="7K6r8tHp7ERIAOB3K0ti-6" value="" style="endArrow=classic;html=1;rounded=0;" edge="1" parent="1">
          <mxGeometry width="50" height="50" relative="1" as="geometry">
            <mxPoint x="170" y="670" as="sourcePoint" />
            <mxPoint x="220" y="630" as="targetPoint" />
          </mxGeometry>
        </mxCell>
        <mxCell id="7K6r8tHp7ERIAOB3K0ti-8" value="" style="endArrow=classic;html=1;rounded=0;" edge="1" parent="1">
          <mxGeometry width="50" height="50" relative="1" as="geometry">
            <mxPoint x="170" y="721" as="sourcePoint" />
            <mxPoint x="210" y="751" as="targetPoint" />
          </mxGeometry>
        </mxCell>
      </root>
    </mxGraphModel>
  </diagram>
  <diagram id="2WTdSz0Pbnn65A8kYl6z" name="Classe">
    <mxGraphModel grid="1" page="1" gridSize="10" guides="1" tooltips="1" connect="1" arrows="1" fold="1" pageScale="1" pageWidth="827" pageHeight="1169" math="0" shadow="0">
      <root>
        <mxCell id="0" />
        <mxCell id="1" parent="0" />
        <mxCell id="BAT-509SXtTX8Ur-SNsy-1" value="Aluno" style="swimlane;fontStyle=1;align=center;verticalAlign=top;childLayout=stackLayout;horizontal=1;startSize=26;horizontalStack=0;resizeParent=1;resizeParentMax=0;resizeLast=0;collapsible=1;marginBottom=0;whiteSpace=wrap;html=1;" vertex="1" parent="1">
          <mxGeometry x="100" y="200" width="160" height="150" as="geometry" />
        </mxCell>
        <mxCell id="BAT-509SXtTX8Ur-SNsy-2" value="+Matricula: String&lt;div&gt;&lt;br&gt;&lt;div&gt;+Nome: String&lt;/div&gt;&lt;div&gt;&lt;br&gt;&lt;/div&gt;&lt;/div&gt;" style="text;strokeColor=none;fillColor=none;align=left;verticalAlign=top;spacingLeft=4;spacingRight=4;overflow=hidden;rotatable=0;points=[[0,0.5],[1,0.5]];portConstraint=eastwest;whiteSpace=wrap;html=1;" vertex="1" parent="BAT-509SXtTX8Ur-SNsy-1">
          <mxGeometry y="26" width="160" height="54" as="geometry" />
        </mxCell>
        <mxCell id="BAT-509SXtTX8Ur-SNsy-3" value="" style="line;strokeWidth=1;fillColor=none;align=left;verticalAlign=middle;spacingTop=-1;spacingLeft=3;spacingRight=3;rotatable=0;labelPosition=right;points=[];portConstraint=eastwest;strokeColor=inherit;" vertex="1" parent="BAT-509SXtTX8Ur-SNsy-1">
          <mxGeometry y="80" width="160" height="8" as="geometry" />
        </mxCell>
        <mxCell id="BAT-509SXtTX8Ur-SNsy-4" value="+&lt;span style=&quot;text-align: center;&quot;&gt;Matricular() Boolean&lt;/span&gt;&lt;div&gt;&lt;span style=&quot;text-align: center;&quot;&gt;+Agendaraulas() Void&lt;/span&gt;&lt;/div&gt;&lt;div&gt;+Consultarhorario() Void&lt;/div&gt;" style="text;strokeColor=none;fillColor=none;align=left;verticalAlign=top;spacingLeft=4;spacingRight=4;overflow=hidden;rotatable=0;points=[[0,0.5],[1,0.5]];portConstraint=eastwest;whiteSpace=wrap;html=1;" vertex="1" parent="BAT-509SXtTX8Ur-SNsy-1">
          <mxGeometry y="88" width="160" height="62" as="geometry" />
        </mxCell>
        <mxCell id="3-9ZMIJY33MeMcCNvbGr-1" value="Treino" style="swimlane;fontStyle=1;align=center;verticalAlign=top;childLayout=stackLayout;horizontal=1;startSize=26;horizontalStack=0;resizeParent=1;resizeParentMax=0;resizeLast=0;collapsible=1;marginBottom=0;whiteSpace=wrap;html=1;" vertex="1" parent="1">
          <mxGeometry x="334" y="200" width="170" height="150" as="geometry" />
        </mxCell>
        <mxCell id="3-9ZMIJY33MeMcCNvbGr-2" value="+Id: Int&lt;div&gt;&lt;br&gt;&lt;div&gt;+Tipo: String&lt;/div&gt;&lt;/div&gt;" style="text;strokeColor=none;fillColor=none;align=left;verticalAlign=top;spacingLeft=4;spacingRight=4;overflow=hidden;rotatable=0;points=[[0,0.5],[1,0.5]];portConstraint=eastwest;whiteSpace=wrap;html=1;" vertex="1" parent="3-9ZMIJY33MeMcCNvbGr-1">
          <mxGeometry y="26" width="170" height="54" as="geometry" />
        </mxCell>
        <mxCell id="3-9ZMIJY33MeMcCNvbGr-3" value="" style="line;strokeWidth=1;fillColor=none;align=left;verticalAlign=middle;spacingTop=-1;spacingLeft=3;spacingRight=3;rotatable=0;labelPosition=right;points=[];portConstraint=eastwest;strokeColor=inherit;" vertex="1" parent="3-9ZMIJY33MeMcCNvbGr-1">
          <mxGeometry y="80" width="170" height="8" as="geometry" />
        </mxCell>
        <mxCell id="3-9ZMIJY33MeMcCNvbGr-4" value="+CriarTreino() Boolean&lt;div&gt;+RegistrarFrequencia() Void&lt;br&gt;&lt;div&gt;&lt;br&gt;&lt;/div&gt;&lt;/div&gt;" style="text;strokeColor=none;fillColor=none;align=left;verticalAlign=top;spacingLeft=4;spacingRight=4;overflow=hidden;rotatable=0;points=[[0,0.5],[1,0.5]];portConstraint=eastwest;whiteSpace=wrap;html=1;" vertex="1" parent="3-9ZMIJY33MeMcCNvbGr-1">
          <mxGeometry y="88" width="170" height="62" as="geometry" />
        </mxCell>
        <mxCell id="3-9ZMIJY33MeMcCNvbGr-5" value="Matrícula" style="swimlane;fontStyle=1;align=center;verticalAlign=top;childLayout=stackLayout;horizontal=1;startSize=26;horizontalStack=0;resizeParent=1;resizeParentMax=0;resizeLast=0;collapsible=1;marginBottom=0;whiteSpace=wrap;html=1;" vertex="1" parent="1">
          <mxGeometry x="560" y="200" width="160" height="88" as="geometry" />
        </mxCell>
        <mxCell id="3-9ZMIJY33MeMcCNvbGr-6" value="+dataInicio: Int&lt;div&gt;&lt;br&gt;&lt;div&gt;+Plano: String&lt;/div&gt;&lt;/div&gt;" style="text;strokeColor=none;fillColor=none;align=left;verticalAlign=top;spacingLeft=4;spacingRight=4;overflow=hidden;rotatable=0;points=[[0,0.5],[1,0.5]];portConstraint=eastwest;whiteSpace=wrap;html=1;" vertex="1" parent="3-9ZMIJY33MeMcCNvbGr-5">
          <mxGeometry y="26" width="160" height="54" as="geometry" />
        </mxCell>
        <mxCell id="3-9ZMIJY33MeMcCNvbGr-7" value="" style="line;strokeWidth=1;fillColor=none;align=left;verticalAlign=middle;spacingTop=-1;spacingLeft=3;spacingRight=3;rotatable=0;labelPosition=right;points=[];portConstraint=eastwest;strokeColor=inherit;" vertex="1" parent="3-9ZMIJY33MeMcCNvbGr-5">
          <mxGeometry y="80" width="160" height="8" as="geometry" />
        </mxCell>
        <mxCell id="qvJZNwG04-ZZFSv6urJ2-1" style="edgeStyle=orthogonalEdgeStyle;rounded=0;orthogonalLoop=1;jettySize=auto;html=1;exitX=1;exitY=0.5;exitDx=0;exitDy=0;entryX=0;entryY=0.5;entryDx=0;entryDy=0;" edge="1" parent="1" source="BAT-509SXtTX8Ur-SNsy-2" target="3-9ZMIJY33MeMcCNvbGr-2">
          <mxGeometry relative="1" as="geometry" />
        </mxCell>
        <mxCell id="qvJZNwG04-ZZFSv6urJ2-3" style="edgeStyle=orthogonalEdgeStyle;rounded=0;orthogonalLoop=1;jettySize=auto;html=1;exitX=1;exitY=0.5;exitDx=0;exitDy=0;entryX=0;entryY=0.5;entryDx=0;entryDy=0;" edge="1" parent="1" source="3-9ZMIJY33MeMcCNvbGr-2" target="3-9ZMIJY33MeMcCNvbGr-6">
          <mxGeometry relative="1" as="geometry" />
        </mxCell>
      </root>
    </mxGraphModel>
  </diagram>
  <diagram id="8dBVgXAoFDgQxGXj52Ne" name="2 Casos de uso">
    <mxGraphModel dx="1428" dy="777" grid="1" gridSize="10" guides="1" tooltips="1" connect="1" arrows="1" fold="1" page="1" pageScale="1" pageWidth="827" pageHeight="1169" math="0" shadow="0">
      <root>
        <mxCell id="0" />
        <mxCell id="1" parent="0" />
        <mxCell id="wLG9HqGI2qTRxIS6Yb6Q-1" value="Atualizar chamadas" style="ellipse;whiteSpace=wrap;html=1;" vertex="1" parent="1">
          <mxGeometry x="130" y="210" width="140" height="70" as="geometry" />
        </mxCell>
        <mxCell id="wLG9HqGI2qTRxIS6Yb6Q-2" value="Tecnico" style="shape=umlActor;verticalLabelPosition=bottom;verticalAlign=top;html=1;" vertex="1" parent="1">
          <mxGeometry x="40" y="260" width="30" height="60" as="geometry" />
        </mxCell>
        <mxCell id="wLG9HqGI2qTRxIS6Yb6Q-3" value="Cliente" style="shape=umlActor;verticalLabelPosition=bottom;verticalAlign=top;html=1;" vertex="1" parent="1">
          <mxGeometry x="40" y="525" width="30" height="60" as="geometry" />
        </mxCell>
        <mxCell id="wLG9HqGI2qTRxIS6Yb6Q-4" value="" style="endArrow=classic;html=1;rounded=0;" edge="1" parent="1">
          <mxGeometry width="50" height="50" relative="1" as="geometry">
            <mxPoint x="90" y="270" as="sourcePoint" />
            <mxPoint x="130" y="260" as="targetPoint" />
          </mxGeometry>
        </mxCell>
        <mxCell id="wLG9HqGI2qTRxIS6Yb6Q-5" value="Gestor" style="shape=umlActor;verticalLabelPosition=bottom;verticalAlign=top;html=1;" vertex="1" parent="1">
          <mxGeometry x="690" y="250" width="30" height="60" as="geometry" />
        </mxCell>
        <mxCell id="wLG9HqGI2qTRxIS6Yb6Q-6" value="Abrir chamadas" style="ellipse;whiteSpace=wrap;html=1;" vertex="1" parent="1">
          <mxGeometry x="120" y="470" width="140" height="70" as="geometry" />
        </mxCell>
        <mxCell id="wLG9HqGI2qTRxIS6Yb6Q-7" value="Acompanhar chamadas" style="ellipse;whiteSpace=wrap;html=1;" vertex="1" parent="1">
          <mxGeometry x="120" y="580" width="140" height="70" as="geometry" />
        </mxCell>
        <mxCell id="wLG9HqGI2qTRxIS6Yb6Q-8" value="" style="endArrow=classic;html=1;rounded=0;" edge="1" parent="1">
          <mxGeometry width="50" height="50" relative="1" as="geometry">
            <mxPoint x="80" y="550" as="sourcePoint" />
            <mxPoint x="120" y="525" as="targetPoint" />
          </mxGeometry>
        </mxCell>
        <mxCell id="wLG9HqGI2qTRxIS6Yb6Q-9" value="" style="endArrow=classic;html=1;rounded=0;" edge="1" parent="1">
          <mxGeometry width="50" height="50" relative="1" as="geometry">
            <mxPoint x="80" y="580" as="sourcePoint" />
            <mxPoint x="110" y="610" as="targetPoint" />
          </mxGeometry>
        </mxCell>
        <mxCell id="MHAkc3WiDAKfyzICcikN-1" value="Resolver chamadas" style="ellipse;whiteSpace=wrap;html=1;" vertex="1" parent="1">
          <mxGeometry x="130" y="300" width="140" height="70" as="geometry" />
        </mxCell>
        <mxCell id="MHAkc3WiDAKfyzICcikN-2" value="" style="endArrow=classic;html=1;rounded=0;" edge="1" parent="1">
          <mxGeometry width="50" height="50" relative="1" as="geometry">
            <mxPoint x="84" y="320" as="sourcePoint" />
            <mxPoint x="124" y="330" as="targetPoint" />
          </mxGeometry>
        </mxCell>
        <mxCell id="MHAkc3WiDAKfyzICcikN-3" value="Atribuir tarefas" style="ellipse;whiteSpace=wrap;html=1;" vertex="1" parent="1">
          <mxGeometry x="500" y="210" width="140" height="70" as="geometry" />
        </mxCell>
        <mxCell id="MHAkc3WiDAKfyzICcikN-4" value="Gerar relatorios" style="ellipse;whiteSpace=wrap;html=1;" vertex="1" parent="1">
          <mxGeometry x="500" y="300" width="140" height="70" as="geometry" />
        </mxCell>
        <mxCell id="MHAkc3WiDAKfyzICcikN-5" value="" style="endArrow=classic;html=1;rounded=0;" edge="1" parent="1">
          <mxGeometry width="50" height="50" relative="1" as="geometry">
            <mxPoint x="680" y="270" as="sourcePoint" />
            <mxPoint x="650" y="250" as="targetPoint" />
          </mxGeometry>
        </mxCell>
        <mxCell id="MHAkc3WiDAKfyzICcikN-6" value="" style="endArrow=classic;html=1;rounded=0;" edge="1" parent="1">
          <mxGeometry width="50" height="50" relative="1" as="geometry">
            <mxPoint x="680" y="310" as="sourcePoint" />
            <mxPoint x="650" y="320" as="targetPoint" />
          </mxGeometry>
        </mxCell>
      </root>
    </mxGraphModel>
  </diagram>
  <diagram id="fNEJwXCvfFQo-oNQtOoC" name="2 Diagrama de classes">
    <mxGraphModel dx="1428" dy="777" grid="1" gridSize="10" guides="1" tooltips="1" connect="1" arrows="1" fold="1" page="1" pageScale="1" pageWidth="827" pageHeight="1169" math="0" shadow="0">
      <root>
        <mxCell id="0" />
        <mxCell id="1" parent="0" />
        <mxCell id="uomm2ptpr2AqNxWgcYJ4-1" value="Chamado" style="swimlane;fontStyle=1;align=center;verticalAlign=top;childLayout=stackLayout;horizontal=1;startSize=26;horizontalStack=0;resizeParent=1;resizeParentMax=0;resizeLast=0;collapsible=1;marginBottom=0;whiteSpace=wrap;html=1;" vertex="1" parent="1">
          <mxGeometry x="90" y="120" width="160" height="124" as="geometry" />
        </mxCell>
        <mxCell id="uomm2ptpr2AqNxWgcYJ4-2" value="+Id: Int&lt;div&gt;+Descrição: String&lt;/div&gt;&lt;div&gt;+Status: String&lt;/div&gt;" style="text;strokeColor=none;fillColor=none;align=left;verticalAlign=top;spacingLeft=4;spacingRight=4;overflow=hidden;rotatable=0;points=[[0,0.5],[1,0.5]];portConstraint=eastwest;whiteSpace=wrap;html=1;" vertex="1" parent="uomm2ptpr2AqNxWgcYJ4-1">
          <mxGeometry y="26" width="160" height="64" as="geometry" />
        </mxCell>
        <mxCell id="uomm2ptpr2AqNxWgcYJ4-3" value="" style="line;strokeWidth=1;fillColor=none;align=left;verticalAlign=middle;spacingTop=-1;spacingLeft=3;spacingRight=3;rotatable=0;labelPosition=right;points=[];portConstraint=eastwest;strokeColor=inherit;" vertex="1" parent="uomm2ptpr2AqNxWgcYJ4-1">
          <mxGeometry y="90" width="160" height="8" as="geometry" />
        </mxCell>
        <mxCell id="uomm2ptpr2AqNxWgcYJ4-4" value="+ method(type): type" style="text;strokeColor=none;fillColor=none;align=left;verticalAlign=top;spacingLeft=4;spacingRight=4;overflow=hidden;rotatable=0;points=[[0,0.5],[1,0.5]];portConstraint=eastwest;whiteSpace=wrap;html=1;" vertex="1" parent="uomm2ptpr2AqNxWgcYJ4-1">
          <mxGeometry y="98" width="160" height="26" as="geometry" />
        </mxCell>
        <mxCell id="uomm2ptpr2AqNxWgcYJ4-5" value="Cliente" style="swimlane;fontStyle=1;align=center;verticalAlign=top;childLayout=stackLayout;horizontal=1;startSize=26;horizontalStack=0;resizeParent=1;resizeParentMax=0;resizeLast=0;collapsible=1;marginBottom=0;whiteSpace=wrap;html=1;" vertex="1" parent="1">
          <mxGeometry x="300" y="120" width="160" height="124" as="geometry" />
        </mxCell>
        <mxCell id="uomm2ptpr2AqNxWgcYJ4-6" value="+Id: Int&lt;div&gt;+Nome: String&lt;/div&gt;" style="text;strokeColor=none;fillColor=none;align=left;verticalAlign=top;spacingLeft=4;spacingRight=4;overflow=hidden;rotatable=0;points=[[0,0.5],[1,0.5]];portConstraint=eastwest;whiteSpace=wrap;html=1;" vertex="1" parent="uomm2ptpr2AqNxWgcYJ4-5">
          <mxGeometry y="26" width="160" height="64" as="geometry" />
        </mxCell>
        <mxCell id="uomm2ptpr2AqNxWgcYJ4-7" value="" style="line;strokeWidth=1;fillColor=none;align=left;verticalAlign=middle;spacingTop=-1;spacingLeft=3;spacingRight=3;rotatable=0;labelPosition=right;points=[];portConstraint=eastwest;strokeColor=inherit;" vertex="1" parent="uomm2ptpr2AqNxWgcYJ4-5">
          <mxGeometry y="90" width="160" height="8" as="geometry" />
        </mxCell>
        <mxCell id="uomm2ptpr2AqNxWgcYJ4-8" value="+ method(type): type" style="text;strokeColor=none;fillColor=none;align=left;verticalAlign=top;spacingLeft=4;spacingRight=4;overflow=hidden;rotatable=0;points=[[0,0.5],[1,0.5]];portConstraint=eastwest;whiteSpace=wrap;html=1;" vertex="1" parent="uomm2ptpr2AqNxWgcYJ4-5">
          <mxGeometry y="98" width="160" height="26" as="geometry" />
        </mxCell>
        <mxCell id="uomm2ptpr2AqNxWgcYJ4-9" value="Técnico" style="swimlane;fontStyle=1;align=center;verticalAlign=top;childLayout=stackLayout;horizontal=1;startSize=26;horizontalStack=0;resizeParent=1;resizeParentMax=0;resizeLast=0;collapsible=1;marginBottom=0;whiteSpace=wrap;html=1;" vertex="1" parent="1">
          <mxGeometry x="500" y="120" width="160" height="124" as="geometry" />
        </mxCell>
        <mxCell id="uomm2ptpr2AqNxWgcYJ4-10" value="+Id: Int&lt;div&gt;+Especialidade: String&lt;/div&gt;" style="text;strokeColor=none;fillColor=none;align=left;verticalAlign=top;spacingLeft=4;spacingRight=4;overflow=hidden;rotatable=0;points=[[0,0.5],[1,0.5]];portConstraint=eastwest;whiteSpace=wrap;html=1;" vertex="1" parent="uomm2ptpr2AqNxWgcYJ4-9">
          <mxGeometry y="26" width="160" height="64" as="geometry" />
        </mxCell>
        <mxCell id="uomm2ptpr2AqNxWgcYJ4-11" value="" style="line;strokeWidth=1;fillColor=none;align=left;verticalAlign=middle;spacingTop=-1;spacingLeft=3;spacingRight=3;rotatable=0;labelPosition=right;points=[];portConstraint=eastwest;strokeColor=inherit;" vertex="1" parent="uomm2ptpr2AqNxWgcYJ4-9">
          <mxGeometry y="90" width="160" height="8" as="geometry" />
        </mxCell>
        <mxCell id="uomm2ptpr2AqNxWgcYJ4-12" value="+ method(type): type" style="text;strokeColor=none;fillColor=none;align=left;verticalAlign=top;spacingLeft=4;spacingRight=4;overflow=hidden;rotatable=0;points=[[0,0.5],[1,0.5]];portConstraint=eastwest;whiteSpace=wrap;html=1;" vertex="1" parent="uomm2ptpr2AqNxWgcYJ4-9">
          <mxGeometry y="98" width="160" height="26" as="geometry" />
        </mxCell>
        <mxCell id="uomm2ptpr2AqNxWgcYJ4-13" style="edgeStyle=orthogonalEdgeStyle;rounded=0;orthogonalLoop=1;jettySize=auto;html=1;exitX=1;exitY=0.5;exitDx=0;exitDy=0;entryX=0;entryY=0.5;entryDx=0;entryDy=0;" edge="1" parent="1" source="uomm2ptpr2AqNxWgcYJ4-2" target="uomm2ptpr2AqNxWgcYJ4-6">
          <mxGeometry relative="1" as="geometry" />
        </mxCell>
        <mxCell id="uomm2ptpr2AqNxWgcYJ4-14" style="edgeStyle=orthogonalEdgeStyle;rounded=0;orthogonalLoop=1;jettySize=auto;html=1;exitX=1;exitY=0.5;exitDx=0;exitDy=0;entryX=0;entryY=0.5;entryDx=0;entryDy=0;" edge="1" parent="1" source="uomm2ptpr2AqNxWgcYJ4-6" target="uomm2ptpr2AqNxWgcYJ4-10">
          <mxGeometry relative="1" as="geometry" />
        </mxCell>
      </root>
    </mxGraphModel>
  </diagram>
  <diagram id="IqN9Fi9xjNrzYFqfp-bP" name="3 Casos de uso">
    <mxGraphModel dx="1503" dy="818" grid="1" gridSize="10" guides="1" tooltips="1" connect="1" arrows="1" fold="1" page="1" pageScale="1" pageWidth="827" pageHeight="1169" math="0" shadow="0">
      <root>
        <mxCell id="0" />
        <mxCell id="1" parent="0" />
        <mxCell id="Xy6TzZm5SQqvkNfIa0HG-1" value="Buscar produtos" style="ellipse;whiteSpace=wrap;html=1;" vertex="1" parent="1">
          <mxGeometry x="200" y="150" width="140" height="70" as="geometry" />
        </mxCell>
        <mxCell id="Xy6TzZm5SQqvkNfIa0HG-2" value="Administrador" style="shape=umlActor;verticalLabelPosition=bottom;verticalAlign=top;html=1;" vertex="1" parent="1">
          <mxGeometry x="110" y="470" width="30" height="60" as="geometry" />
        </mxCell>
        <mxCell id="Xy6TzZm5SQqvkNfIa0HG-3" value="Adicionar item ao carrinho" style="ellipse;whiteSpace=wrap;html=1;" vertex="1" parent="1">
          <mxGeometry x="200" y="230" width="140" height="70" as="geometry" />
        </mxCell>
        <mxCell id="Xy6TzZm5SQqvkNfIa0HG-4" value="Finalizar compra" style="ellipse;whiteSpace=wrap;html=1;" vertex="1" parent="1">
          <mxGeometry x="200" y="310" width="140" height="70" as="geometry" />
        </mxCell>
        <mxCell id="Xy6TzZm5SQqvkNfIa0HG-5" value="" style="endArrow=classic;html=1;rounded=0;" edge="1" parent="1">
          <mxGeometry width="50" height="50" relative="1" as="geometry">
            <mxPoint x="150" y="220" as="sourcePoint" />
            <mxPoint x="190" y="190" as="targetPoint" />
          </mxGeometry>
        </mxCell>
        <mxCell id="Xy6TzZm5SQqvkNfIa0HG-6" value="" style="endArrow=classic;html=1;rounded=0;" edge="1" parent="1">
          <mxGeometry width="50" height="50" relative="1" as="geometry">
            <mxPoint x="150" y="260" as="sourcePoint" />
            <mxPoint x="190" y="260" as="targetPoint" />
          </mxGeometry>
        </mxCell>
        <mxCell id="Xy6TzZm5SQqvkNfIa0HG-7" value="" style="endArrow=classic;html=1;rounded=0;" edge="1" parent="1">
          <mxGeometry width="50" height="50" relative="1" as="geometry">
            <mxPoint x="150" y="280" as="sourcePoint" />
            <mxPoint x="190" y="330" as="targetPoint" />
          </mxGeometry>
        </mxCell>
        <mxCell id="Xy6TzZm5SQqvkNfIa0HG-8" value="Vendedor" style="shape=umlActor;verticalLabelPosition=bottom;verticalAlign=top;html=1;" vertex="1" parent="1">
          <mxGeometry x="650" y="230" width="30" height="60" as="geometry" />
        </mxCell>
        <mxCell id="Xy6TzZm5SQqvkNfIa0HG-11" value="Cadastrar produtos" style="ellipse;whiteSpace=wrap;html=1;" vertex="1" parent="1">
          <mxGeometry x="450" y="170" width="140" height="70" as="geometry" />
        </mxCell>
        <mxCell id="Xy6TzZm5SQqvkNfIa0HG-12" value="Atualizar estoque" style="ellipse;whiteSpace=wrap;html=1;" vertex="1" parent="1">
          <mxGeometry x="450" y="270" width="140" height="70" as="geometry" />
        </mxCell>
        <mxCell id="Xy6TzZm5SQqvkNfIa0HG-13" value="" style="endArrow=classic;html=1;rounded=0;" edge="1" parent="1">
          <mxGeometry width="50" height="50" relative="1" as="geometry">
            <mxPoint x="640" y="250" as="sourcePoint" />
            <mxPoint x="600" y="220" as="targetPoint" />
          </mxGeometry>
        </mxCell>
        <mxCell id="Xy6TzZm5SQqvkNfIa0HG-14" value="" style="endArrow=classic;html=1;rounded=0;" edge="1" parent="1">
          <mxGeometry width="50" height="50" relative="1" as="geometry">
            <mxPoint x="640" y="280" as="sourcePoint" />
            <mxPoint x="600" y="300" as="targetPoint" />
          </mxGeometry>
        </mxCell>
        <mxCell id="Xy6TzZm5SQqvkNfIa0HG-15" value="Gerar promoções" style="ellipse;whiteSpace=wrap;html=1;" vertex="1" parent="1">
          <mxGeometry x="200" y="420" width="140" height="70" as="geometry" />
        </mxCell>
        <mxCell id="Xy6TzZm5SQqvkNfIa0HG-16" value="Relatorio de vendas" style="ellipse;whiteSpace=wrap;html=1;" vertex="1" parent="1">
          <mxGeometry x="200" y="500" width="140" height="70" as="geometry" />
        </mxCell>
        <mxCell id="Xy6TzZm5SQqvkNfIa0HG-17" value="Cliente" style="shape=umlActor;verticalLabelPosition=bottom;verticalAlign=top;html=1;" vertex="1" parent="1">
          <mxGeometry x="110" y="210" width="30" height="60" as="geometry" />
        </mxCell>
        <mxCell id="Xy6TzZm5SQqvkNfIa0HG-18" value="" style="endArrow=classic;html=1;rounded=0;" edge="1" parent="1">
          <mxGeometry width="50" height="50" relative="1" as="geometry">
            <mxPoint x="160" y="480" as="sourcePoint" />
            <mxPoint x="190" y="460" as="targetPoint" />
          </mxGeometry>
        </mxCell>
        <mxCell id="Xy6TzZm5SQqvkNfIa0HG-19" value="" style="endArrow=classic;html=1;rounded=0;" edge="1" parent="1">
          <mxGeometry width="50" height="50" relative="1" as="geometry">
            <mxPoint x="160" y="530" as="sourcePoint" />
            <mxPoint x="190" y="530" as="targetPoint" />
          </mxGeometry>
        </mxCell>
      </root>
    </mxGraphModel>
  </diagram>
  <diagram id="aBJmXLoamV1jrCJxloNE" name="3 Classes">
    <mxGraphModel dx="1428" dy="777" grid="1" gridSize="10" guides="1" tooltips="1" connect="1" arrows="1" fold="1" page="1" pageScale="1" pageWidth="827" pageHeight="1169" math="0" shadow="0">
      <root>
        <mxCell id="0" />
        <mxCell id="1" parent="0" />
        <mxCell id="p3QBiJfPCq3tsqS5zZG2-1" value="Produto" style="swimlane;fontStyle=1;align=center;verticalAlign=top;childLayout=stackLayout;horizontal=1;startSize=26;horizontalStack=0;resizeParent=1;resizeParentMax=0;resizeLast=0;collapsible=1;marginBottom=0;whiteSpace=wrap;html=1;" vertex="1" parent="1">
          <mxGeometry x="320" y="200" width="160" height="124" as="geometry" />
        </mxCell>
        <mxCell id="p3QBiJfPCq3tsqS5zZG2-2" value="+ Id: Int&lt;div&gt;+ Nome: String&lt;/div&gt;&lt;div&gt;+ Preço: Double&amp;nbsp;&lt;/div&gt;" style="text;strokeColor=none;fillColor=none;align=left;verticalAlign=top;spacingLeft=4;spacingRight=4;overflow=hidden;rotatable=0;points=[[0,0.5],[1,0.5]];portConstraint=eastwest;whiteSpace=wrap;html=1;" vertex="1" parent="p3QBiJfPCq3tsqS5zZG2-1">
          <mxGeometry y="26" width="160" height="64" as="geometry" />
        </mxCell>
        <mxCell id="p3QBiJfPCq3tsqS5zZG2-3" value="" style="line;strokeWidth=1;fillColor=none;align=left;verticalAlign=middle;spacingTop=-1;spacingLeft=3;spacingRight=3;rotatable=0;labelPosition=right;points=[];portConstraint=eastwest;strokeColor=inherit;" vertex="1" parent="p3QBiJfPCq3tsqS5zZG2-1">
          <mxGeometry y="90" width="160" height="8" as="geometry" />
        </mxCell>
        <mxCell id="p3QBiJfPCq3tsqS5zZG2-4" value="+ method(type): type" style="text;strokeColor=none;fillColor=none;align=left;verticalAlign=top;spacingLeft=4;spacingRight=4;overflow=hidden;rotatable=0;points=[[0,0.5],[1,0.5]];portConstraint=eastwest;whiteSpace=wrap;html=1;" vertex="1" parent="p3QBiJfPCq3tsqS5zZG2-1">
          <mxGeometry y="98" width="160" height="26" as="geometry" />
        </mxCell>
        <mxCell id="p3QBiJfPCq3tsqS5zZG2-5" value="Pedido" style="swimlane;fontStyle=1;align=center;verticalAlign=top;childLayout=stackLayout;horizontal=1;startSize=26;horizontalStack=0;resizeParent=1;resizeParentMax=0;resizeLast=0;collapsible=1;marginBottom=0;whiteSpace=wrap;html=1;" vertex="1" parent="1">
          <mxGeometry x="530" y="200" width="160" height="124" as="geometry" />
        </mxCell>
        <mxCell id="p3QBiJfPCq3tsqS5zZG2-6" value="+ Id: Int&lt;div&gt;+ Data: Int&lt;/div&gt;&lt;div&gt;+ Status: String&lt;/div&gt;" style="text;strokeColor=none;fillColor=none;align=left;verticalAlign=top;spacingLeft=4;spacingRight=4;overflow=hidden;rotatable=0;points=[[0,0.5],[1,0.5]];portConstraint=eastwest;whiteSpace=wrap;html=1;" vertex="1" parent="p3QBiJfPCq3tsqS5zZG2-5">
          <mxGeometry y="26" width="160" height="64" as="geometry" />
        </mxCell>
        <mxCell id="p3QBiJfPCq3tsqS5zZG2-7" value="" style="line;strokeWidth=1;fillColor=none;align=left;verticalAlign=middle;spacingTop=-1;spacingLeft=3;spacingRight=3;rotatable=0;labelPosition=right;points=[];portConstraint=eastwest;strokeColor=inherit;" vertex="1" parent="p3QBiJfPCq3tsqS5zZG2-5">
          <mxGeometry y="90" width="160" height="8" as="geometry" />
        </mxCell>
        <mxCell id="p3QBiJfPCq3tsqS5zZG2-8" value="+ method(type): type" style="text;strokeColor=none;fillColor=none;align=left;verticalAlign=top;spacingLeft=4;spacingRight=4;overflow=hidden;rotatable=0;points=[[0,0.5],[1,0.5]];portConstraint=eastwest;whiteSpace=wrap;html=1;" vertex="1" parent="p3QBiJfPCq3tsqS5zZG2-5">
          <mxGeometry y="98" width="160" height="26" as="geometry" />
        </mxCell>
        <mxCell id="p3QBiJfPCq3tsqS5zZG2-9" value="Cliente" style="swimlane;fontStyle=1;align=center;verticalAlign=top;childLayout=stackLayout;horizontal=1;startSize=26;horizontalStack=0;resizeParent=1;resizeParentMax=0;resizeLast=0;collapsible=1;marginBottom=0;whiteSpace=wrap;html=1;" vertex="1" parent="1">
          <mxGeometry x="110" y="200" width="160" height="124" as="geometry" />
        </mxCell>
        <mxCell id="p3QBiJfPCq3tsqS5zZG2-10" value="+ CPF: String&lt;div&gt;+ Endereço: String&lt;/div&gt;&lt;div&gt;&lt;br&gt;&lt;/div&gt;&lt;div&gt;&lt;div&gt;&lt;br&gt;&lt;/div&gt;&lt;/div&gt;" style="text;strokeColor=none;fillColor=none;align=left;verticalAlign=top;spacingLeft=4;spacingRight=4;overflow=hidden;rotatable=0;points=[[0,0.5],[1,0.5]];portConstraint=eastwest;whiteSpace=wrap;html=1;" vertex="1" parent="p3QBiJfPCq3tsqS5zZG2-9">
          <mxGeometry y="26" width="160" height="64" as="geometry" />
        </mxCell>
        <mxCell id="p3QBiJfPCq3tsqS5zZG2-11" value="" style="line;strokeWidth=1;fillColor=none;align=left;verticalAlign=middle;spacingTop=-1;spacingLeft=3;spacingRight=3;rotatable=0;labelPosition=right;points=[];portConstraint=eastwest;strokeColor=inherit;" vertex="1" parent="p3QBiJfPCq3tsqS5zZG2-9">
          <mxGeometry y="90" width="160" height="8" as="geometry" />
        </mxCell>
        <mxCell id="p3QBiJfPCq3tsqS5zZG2-12" value="+ method(type): type" style="text;strokeColor=none;fillColor=none;align=left;verticalAlign=top;spacingLeft=4;spacingRight=4;overflow=hidden;rotatable=0;points=[[0,0.5],[1,0.5]];portConstraint=eastwest;whiteSpace=wrap;html=1;" vertex="1" parent="p3QBiJfPCq3tsqS5zZG2-9">
          <mxGeometry y="98" width="160" height="26" as="geometry" />
        </mxCell>
        <mxCell id="Sz9uv4HXJ693CTnc5sbr-1" style="edgeStyle=orthogonalEdgeStyle;rounded=0;orthogonalLoop=1;jettySize=auto;html=1;exitX=1;exitY=0.5;exitDx=0;exitDy=0;entryX=0;entryY=0.5;entryDx=0;entryDy=0;" edge="1" parent="1" source="p3QBiJfPCq3tsqS5zZG2-10" target="p3QBiJfPCq3tsqS5zZG2-2">
          <mxGeometry relative="1" as="geometry" />
        </mxCell>
        <mxCell id="Sz9uv4HXJ693CTnc5sbr-2" style="edgeStyle=orthogonalEdgeStyle;rounded=0;orthogonalLoop=1;jettySize=auto;html=1;exitX=1;exitY=0.5;exitDx=0;exitDy=0;entryX=0;entryY=0.5;entryDx=0;entryDy=0;" edge="1" parent="1" source="p3QBiJfPCq3tsqS5zZG2-2" target="p3QBiJfPCq3tsqS5zZG2-6">
          <mxGeometry relative="1" as="geometry" />
        </mxCell>
      </root>
    </mxGraphModel>
  </diagram>
  <diagram id="HqJI7SYMfl679Tt9Uz-A" name="4 Casos de uso">
    <mxGraphModel dx="1428" dy="777" grid="1" gridSize="10" guides="1" tooltips="1" connect="1" arrows="1" fold="1" page="1" pageScale="1" pageWidth="827" pageHeight="1169" math="0" shadow="0">
      <root>
        <mxCell id="0" />
        <mxCell id="1" parent="0" />
        <mxCell id="NVjrwMA6eOfoHvbOQ1F9-1" value="Farmaceutico" style="shape=umlActor;verticalLabelPosition=bottom;verticalAlign=top;html=1;" vertex="1" parent="1">
          <mxGeometry x="90" y="250" width="30" height="60" as="geometry" />
        </mxCell>
        <mxCell id="NVjrwMA6eOfoHvbOQ1F9-2" value="Administrador" style="shape=umlActor;verticalLabelPosition=bottom;verticalAlign=top;html=1;" vertex="1" parent="1">
          <mxGeometry x="90" y="590" width="30" height="60" as="geometry" />
        </mxCell>
        <mxCell id="NVjrwMA6eOfoHvbOQ1F9-7" value="Sistema" style="shape=umlActor;verticalLabelPosition=bottom;verticalAlign=top;html=1;" vertex="1" parent="1">
          <mxGeometry x="650" y="430" width="30" height="60" as="geometry" />
        </mxCell>
        <mxCell id="NVjrwMA6eOfoHvbOQ1F9-8" value="Busquem medicamento" style="ellipse;whiteSpace=wrap;html=1;" vertex="1" parent="1">
          <mxGeometry x="440" y="490" width="140" height="70" as="geometry" />
        </mxCell>
        <mxCell id="NVjrwMA6eOfoHvbOQ1F9-9" value="Comprar medicamentos" style="ellipse;whiteSpace=wrap;html=1;" vertex="1" parent="1">
          <mxGeometry x="440" y="410" width="140" height="70" as="geometry" />
        </mxCell>
        <mxCell id="NVjrwMA6eOfoHvbOQ1F9-10" value="" style="endArrow=classic;html=1;rounded=0;" edge="1" parent="1">
          <mxGeometry width="50" height="50" relative="1" as="geometry">
            <mxPoint x="630" y="470" as="sourcePoint" />
            <mxPoint x="580" y="450" as="targetPoint" />
          </mxGeometry>
        </mxCell>
        <mxCell id="NVjrwMA6eOfoHvbOQ1F9-11" value="" style="endArrow=classic;html=1;rounded=0;entryX=1;entryY=0.371;entryDx=0;entryDy=0;entryPerimeter=0;" edge="1" parent="1" target="NVjrwMA6eOfoHvbOQ1F9-8">
          <mxGeometry width="50" height="50" relative="1" as="geometry">
            <mxPoint x="630" y="480" as="sourcePoint" />
            <mxPoint x="590" y="510" as="targetPoint" />
          </mxGeometry>
        </mxCell>
        <mxCell id="NVjrwMA6eOfoHvbOQ1F9-12" value="Validar receitas" style="ellipse;whiteSpace=wrap;html=1;" vertex="1" parent="1">
          <mxGeometry x="170" y="200" width="140" height="70" as="geometry" />
        </mxCell>
        <mxCell id="NVjrwMA6eOfoHvbOQ1F9-13" value="Atualizar estoque" style="ellipse;whiteSpace=wrap;html=1;" vertex="1" parent="1">
          <mxGeometry x="170" y="300" width="140" height="70" as="geometry" />
        </mxCell>
        <mxCell id="NVjrwMA6eOfoHvbOQ1F9-14" value="" style="endArrow=classic;html=1;rounded=0;" edge="1" parent="1" target="NVjrwMA6eOfoHvbOQ1F9-12">
          <mxGeometry width="50" height="50" relative="1" as="geometry">
            <mxPoint x="140" y="280" as="sourcePoint" />
            <mxPoint x="440" y="480" as="targetPoint" />
          </mxGeometry>
        </mxCell>
        <mxCell id="NVjrwMA6eOfoHvbOQ1F9-15" value="" style="endArrow=classic;html=1;rounded=0;" edge="1" parent="1" target="NVjrwMA6eOfoHvbOQ1F9-13">
          <mxGeometry width="50" height="50" relative="1" as="geometry">
            <mxPoint x="140" y="300" as="sourcePoint" />
            <mxPoint x="198" y="268" as="targetPoint" />
          </mxGeometry>
        </mxCell>
        <mxCell id="NVjrwMA6eOfoHvbOQ1F9-16" value="Cadastrar medicamentos" style="ellipse;whiteSpace=wrap;html=1;" vertex="1" parent="1">
          <mxGeometry x="180" y="515" width="140" height="70" as="geometry" />
        </mxCell>
        <mxCell id="NVjrwMA6eOfoHvbOQ1F9-17" value="Ajustar preços" style="ellipse;whiteSpace=wrap;html=1;" vertex="1" parent="1">
          <mxGeometry x="180" y="600" width="140" height="70" as="geometry" />
        </mxCell>
        <mxCell id="NVjrwMA6eOfoHvbOQ1F9-18" value="Gerar relatórios de venda" style="ellipse;whiteSpace=wrap;html=1;" vertex="1" parent="1">
          <mxGeometry x="180" y="680" width="140" height="70" as="geometry" />
        </mxCell>
        <mxCell id="NVjrwMA6eOfoHvbOQ1F9-19" value="" style="endArrow=classic;html=1;rounded=0;" edge="1" parent="1">
          <mxGeometry width="50" height="50" relative="1" as="geometry">
            <mxPoint x="132" y="590" as="sourcePoint" />
            <mxPoint x="180" y="568" as="targetPoint" />
          </mxGeometry>
        </mxCell>
        <mxCell id="NVjrwMA6eOfoHvbOQ1F9-20" value="" style="endArrow=classic;html=1;rounded=0;" edge="1" parent="1">
          <mxGeometry width="50" height="50" relative="1" as="geometry">
            <mxPoint x="130" y="638" as="sourcePoint" />
            <mxPoint x="170" y="638" as="targetPoint" />
          </mxGeometry>
        </mxCell>
        <mxCell id="NVjrwMA6eOfoHvbOQ1F9-21" value="" style="endArrow=classic;html=1;rounded=0;" edge="1" parent="1">
          <mxGeometry width="50" height="50" relative="1" as="geometry">
            <mxPoint x="137" y="677" as="sourcePoint" />
            <mxPoint x="177" y="687" as="targetPoint" />
          </mxGeometry>
        </mxCell>
      </root>
    </mxGraphModel>
  </diagram>
  <diagram id="Vh-GmE4wY5KzUARiNFA9" name="4 Classes">
    <mxGraphModel dx="1428" dy="777" grid="1" gridSize="10" guides="1" tooltips="1" connect="1" arrows="1" fold="1" page="1" pageScale="1" pageWidth="827" pageHeight="1169" math="0" shadow="0">
      <root>
        <mxCell id="0" />
        <mxCell id="1" parent="0" />
        <mxCell id="ySJ6-K5LkvwM2PDzeFkb-1" value="Medicamento" style="swimlane;fontStyle=1;align=center;verticalAlign=top;childLayout=stackLayout;horizontal=1;startSize=26;horizontalStack=0;resizeParent=1;resizeParentMax=0;resizeLast=0;collapsible=1;marginBottom=0;whiteSpace=wrap;html=1;" vertex="1" parent="1">
          <mxGeometry x="310" y="80" width="160" height="184" as="geometry" />
        </mxCell>
        <mxCell id="ySJ6-K5LkvwM2PDzeFkb-2" value="+ Id: Int&lt;div&gt;+ Nome: String&lt;/div&gt;&lt;div&gt;+ Categoria: String&lt;/div&gt;&lt;div&gt;+ Preço: Double&lt;/div&gt;&lt;div&gt;+ ReceitaObrigatoria: String&lt;/div&gt;&lt;div&gt;&lt;br&gt;&lt;/div&gt;" style="text;strokeColor=none;fillColor=none;align=left;verticalAlign=top;spacingLeft=4;spacingRight=4;overflow=hidden;rotatable=0;points=[[0,0.5],[1,0.5]];portConstraint=eastwest;whiteSpace=wrap;html=1;" vertex="1" parent="ySJ6-K5LkvwM2PDzeFkb-1">
          <mxGeometry y="26" width="160" height="124" as="geometry" />
        </mxCell>
        <mxCell id="ySJ6-K5LkvwM2PDzeFkb-3" value="" style="line;strokeWidth=1;fillColor=none;align=left;verticalAlign=middle;spacingTop=-1;spacingLeft=3;spacingRight=3;rotatable=0;labelPosition=right;points=[];portConstraint=eastwest;strokeColor=inherit;" vertex="1" parent="ySJ6-K5LkvwM2PDzeFkb-1">
          <mxGeometry y="150" width="160" height="8" as="geometry" />
        </mxCell>
        <mxCell id="ySJ6-K5LkvwM2PDzeFkb-4" value="+ method(type): type" style="text;strokeColor=none;fillColor=none;align=left;verticalAlign=top;spacingLeft=4;spacingRight=4;overflow=hidden;rotatable=0;points=[[0,0.5],[1,0.5]];portConstraint=eastwest;whiteSpace=wrap;html=1;" vertex="1" parent="ySJ6-K5LkvwM2PDzeFkb-1">
          <mxGeometry y="158" width="160" height="26" as="geometry" />
        </mxCell>
        <mxCell id="ySJ6-K5LkvwM2PDzeFkb-9" value="Cliente" style="swimlane;fontStyle=1;align=center;verticalAlign=top;childLayout=stackLayout;horizontal=1;startSize=26;horizontalStack=0;resizeParent=1;resizeParentMax=0;resizeLast=0;collapsible=1;marginBottom=0;whiteSpace=wrap;html=1;" vertex="1" parent="1">
          <mxGeometry x="100" y="80" width="160" height="184" as="geometry" />
        </mxCell>
        <mxCell id="ySJ6-K5LkvwM2PDzeFkb-10" value="+ CPF: String&lt;div&gt;+ Nome: String&lt;/div&gt;&lt;div&gt;+ Telefone: String&lt;/div&gt;" style="text;strokeColor=none;fillColor=none;align=left;verticalAlign=top;spacingLeft=4;spacingRight=4;overflow=hidden;rotatable=0;points=[[0,0.5],[1,0.5]];portConstraint=eastwest;whiteSpace=wrap;html=1;" vertex="1" parent="ySJ6-K5LkvwM2PDzeFkb-9">
          <mxGeometry y="26" width="160" height="124" as="geometry" />
        </mxCell>
        <mxCell id="ySJ6-K5LkvwM2PDzeFkb-11" value="" style="line;strokeWidth=1;fillColor=none;align=left;verticalAlign=middle;spacingTop=-1;spacingLeft=3;spacingRight=3;rotatable=0;labelPosition=right;points=[];portConstraint=eastwest;strokeColor=inherit;" vertex="1" parent="ySJ6-K5LkvwM2PDzeFkb-9">
          <mxGeometry y="150" width="160" height="8" as="geometry" />
        </mxCell>
        <mxCell id="ySJ6-K5LkvwM2PDzeFkb-12" value="+ method(type): type" style="text;strokeColor=none;fillColor=none;align=left;verticalAlign=top;spacingLeft=4;spacingRight=4;overflow=hidden;rotatable=0;points=[[0,0.5],[1,0.5]];portConstraint=eastwest;whiteSpace=wrap;html=1;" vertex="1" parent="ySJ6-K5LkvwM2PDzeFkb-9">
          <mxGeometry y="158" width="160" height="26" as="geometry" />
        </mxCell>
        <mxCell id="ySJ6-K5LkvwM2PDzeFkb-13" value="Pedido" style="swimlane;fontStyle=1;align=center;verticalAlign=top;childLayout=stackLayout;horizontal=1;startSize=26;horizontalStack=0;resizeParent=1;resizeParentMax=0;resizeLast=0;collapsible=1;marginBottom=0;whiteSpace=wrap;html=1;" vertex="1" parent="1">
          <mxGeometry x="310" y="310" width="160" height="144" as="geometry" />
        </mxCell>
        <mxCell id="ySJ6-K5LkvwM2PDzeFkb-14" value="+ Id: Int&lt;div&gt;+ Data: String&lt;/div&gt;&lt;div&gt;+ Valortotal: Double&lt;/div&gt;&lt;div&gt;+ Status: String&lt;/div&gt;&lt;div&gt;&lt;br&gt;&lt;/div&gt;" style="text;strokeColor=none;fillColor=none;align=left;verticalAlign=top;spacingLeft=4;spacingRight=4;overflow=hidden;rotatable=0;points=[[0,0.5],[1,0.5]];portConstraint=eastwest;whiteSpace=wrap;html=1;" vertex="1" parent="ySJ6-K5LkvwM2PDzeFkb-13">
          <mxGeometry y="26" width="160" height="84" as="geometry" />
        </mxCell>
        <mxCell id="ySJ6-K5LkvwM2PDzeFkb-15" value="" style="line;strokeWidth=1;fillColor=none;align=left;verticalAlign=middle;spacingTop=-1;spacingLeft=3;spacingRight=3;rotatable=0;labelPosition=right;points=[];portConstraint=eastwest;strokeColor=inherit;" vertex="1" parent="ySJ6-K5LkvwM2PDzeFkb-13">
          <mxGeometry y="110" width="160" height="8" as="geometry" />
        </mxCell>
        <mxCell id="ySJ6-K5LkvwM2PDzeFkb-16" value="+ method(type): type" style="text;strokeColor=none;fillColor=none;align=left;verticalAlign=top;spacingLeft=4;spacingRight=4;overflow=hidden;rotatable=0;points=[[0,0.5],[1,0.5]];portConstraint=eastwest;whiteSpace=wrap;html=1;" vertex="1" parent="ySJ6-K5LkvwM2PDzeFkb-13">
          <mxGeometry y="118" width="160" height="26" as="geometry" />
        </mxCell>
        <mxCell id="ySJ6-K5LkvwM2PDzeFkb-17" value="Farmacêutico" style="swimlane;fontStyle=1;align=center;verticalAlign=top;childLayout=stackLayout;horizontal=1;startSize=26;horizontalStack=0;resizeParent=1;resizeParentMax=0;resizeLast=0;collapsible=1;marginBottom=0;whiteSpace=wrap;html=1;" vertex="1" parent="1">
          <mxGeometry x="80" y="310" width="200" height="144" as="geometry" />
        </mxCell>
        <mxCell id="ySJ6-K5LkvwM2PDzeFkb-18" value="+ Id: Int&lt;div&gt;+ Nome: String&lt;/div&gt;&lt;div&gt;+ Registroprofissional: String&lt;/div&gt;" style="text;strokeColor=none;fillColor=none;align=left;verticalAlign=top;spacingLeft=4;spacingRight=4;overflow=hidden;rotatable=0;points=[[0,0.5],[1,0.5]];portConstraint=eastwest;whiteSpace=wrap;html=1;" vertex="1" parent="ySJ6-K5LkvwM2PDzeFkb-17">
          <mxGeometry y="26" width="200" height="84" as="geometry" />
        </mxCell>
        <mxCell id="ySJ6-K5LkvwM2PDzeFkb-19" value="" style="line;strokeWidth=1;fillColor=none;align=left;verticalAlign=middle;spacingTop=-1;spacingLeft=3;spacingRight=3;rotatable=0;labelPosition=right;points=[];portConstraint=eastwest;strokeColor=inherit;" vertex="1" parent="ySJ6-K5LkvwM2PDzeFkb-17">
          <mxGeometry y="110" width="200" height="8" as="geometry" />
        </mxCell>
        <mxCell id="ySJ6-K5LkvwM2PDzeFkb-20" value="+ method(type): type" style="text;strokeColor=none;fillColor=none;align=left;verticalAlign=top;spacingLeft=4;spacingRight=4;overflow=hidden;rotatable=0;points=[[0,0.5],[1,0.5]];portConstraint=eastwest;whiteSpace=wrap;html=1;" vertex="1" parent="ySJ6-K5LkvwM2PDzeFkb-17">
          <mxGeometry y="118" width="200" height="26" as="geometry" />
        </mxCell>
        <mxCell id="ySJ6-K5LkvwM2PDzeFkb-22" style="edgeStyle=orthogonalEdgeStyle;rounded=0;orthogonalLoop=1;jettySize=auto;html=1;exitX=1;exitY=0.5;exitDx=0;exitDy=0;entryX=0;entryY=0.5;entryDx=0;entryDy=0;" edge="1" parent="1" source="ySJ6-K5LkvwM2PDzeFkb-10" target="ySJ6-K5LkvwM2PDzeFkb-2">
          <mxGeometry relative="1" as="geometry" />
        </mxCell>
        <mxCell id="ySJ6-K5LkvwM2PDzeFkb-24" value="" style="endArrow=classic;html=1;rounded=0;entryX=0.5;entryY=0;entryDx=0;entryDy=0;" edge="1" parent="1">
          <mxGeometry width="50" height="50" relative="1" as="geometry">
            <mxPoint x="390" y="279" as="sourcePoint" />
            <mxPoint x="390" y="307" as="targetPoint" />
            <Array as="points">
              <mxPoint x="390" y="269" />
            </Array>
          </mxGeometry>
        </mxCell>
        <mxCell id="ySJ6-K5LkvwM2PDzeFkb-25" style="edgeStyle=orthogonalEdgeStyle;rounded=0;orthogonalLoop=1;jettySize=auto;html=1;exitX=0;exitY=0.5;exitDx=0;exitDy=0;" edge="1" parent="1" source="ySJ6-K5LkvwM2PDzeFkb-14" target="ySJ6-K5LkvwM2PDzeFkb-18">
          <mxGeometry relative="1" as="geometry" />
        </mxCell>
      </root>
    </mxGraphModel>
  </diagram>
  <diagram id="3wETY8-RHA3jYz1BpGwh" name="5 Casos de uso">
    <mxGraphModel dx="1428" dy="777" grid="1" gridSize="10" guides="1" tooltips="1" connect="1" arrows="1" fold="1" page="1" pageScale="1" pageWidth="827" pageHeight="1169" math="0" shadow="0">
      <root>
        <mxCell id="0" />
        <mxCell id="1" parent="0" />
        <mxCell id="Z4B4hfs42aIyabb2aJls-1" value="Passageiro" style="shape=umlActor;verticalLabelPosition=bottom;verticalAlign=top;html=1;" vertex="1" parent="1">
          <mxGeometry x="90" y="160" width="30" height="60" as="geometry" />
        </mxCell>
        <mxCell id="Z4B4hfs42aIyabb2aJls-2" value="Comprar passagem" style="ellipse;whiteSpace=wrap;html=1;" vertex="1" parent="1">
          <mxGeometry x="160" y="110" width="140" height="70" as="geometry" />
        </mxCell>
        <mxCell id="Z4B4hfs42aIyabb2aJls-3" value="Realizar Check- in" style="ellipse;whiteSpace=wrap;html=1;" vertex="1" parent="1">
          <mxGeometry x="160" y="200" width="140" height="70" as="geometry" />
        </mxCell>
        <mxCell id="Z4B4hfs42aIyabb2aJls-5" value="Companhias" style="shape=umlActor;verticalLabelPosition=bottom;verticalAlign=top;html=1;" vertex="1" parent="1">
          <mxGeometry x="720" y="160" width="30" height="60" as="geometry" />
        </mxCell>
        <mxCell id="Z4B4hfs42aIyabb2aJls-7" value="Torre de controle" style="shape=umlActor;verticalLabelPosition=bottom;verticalAlign=top;html=1;" vertex="1" parent="1">
          <mxGeometry x="80" y="520" width="30" height="60" as="geometry" />
        </mxCell>
        <mxCell id="Z4B4hfs42aIyabb2aJls-8" value="Cadastrar voos" style="ellipse;whiteSpace=wrap;html=1;" vertex="1" parent="1">
          <mxGeometry x="530" y="110" width="140" height="70" as="geometry" />
        </mxCell>
        <mxCell id="Z4B4hfs42aIyabb2aJls-9" value="Gerenciar reservas" style="ellipse;whiteSpace=wrap;html=1;" vertex="1" parent="1">
          <mxGeometry x="530" y="200" width="140" height="70" as="geometry" />
        </mxCell>
        <mxCell id="Z4B4hfs42aIyabb2aJls-10" value="Autorizar pousos" style="ellipse;whiteSpace=wrap;html=1;" vertex="1" parent="1">
          <mxGeometry x="160" y="450" width="140" height="70" as="geometry" />
        </mxCell>
        <mxCell id="Z4B4hfs42aIyabb2aJls-11" value="Permitir pousos e decolagens" style="ellipse;whiteSpace=wrap;html=1;" vertex="1" parent="1">
          <mxGeometry x="160" y="530" width="140" height="70" as="geometry" />
        </mxCell>
        <mxCell id="Z4B4hfs42aIyabb2aJls-12" value="Gerenciar pistas" style="ellipse;whiteSpace=wrap;html=1;" vertex="1" parent="1">
          <mxGeometry x="160" y="610" width="140" height="70" as="geometry" />
        </mxCell>
        <mxCell id="Z4B4hfs42aIyabb2aJls-13" value="" style="endArrow=classic;html=1;rounded=0;" edge="1" parent="1">
          <mxGeometry width="50" height="50" relative="1" as="geometry">
            <mxPoint x="120" y="530" as="sourcePoint" />
            <mxPoint x="160" y="500" as="targetPoint" />
          </mxGeometry>
        </mxCell>
        <mxCell id="Z4B4hfs42aIyabb2aJls-14" value="" style="endArrow=classic;html=1;rounded=0;" edge="1" parent="1">
          <mxGeometry width="50" height="50" relative="1" as="geometry">
            <mxPoint x="120" y="560" as="sourcePoint" />
            <mxPoint x="150" y="560" as="targetPoint" />
          </mxGeometry>
        </mxCell>
        <mxCell id="Z4B4hfs42aIyabb2aJls-15" value="" style="endArrow=classic;html=1;rounded=0;" edge="1" parent="1">
          <mxGeometry width="50" height="50" relative="1" as="geometry">
            <mxPoint x="120" y="600" as="sourcePoint" />
            <mxPoint x="160" y="630" as="targetPoint" />
          </mxGeometry>
        </mxCell>
        <mxCell id="Z4B4hfs42aIyabb2aJls-18" value="" style="endArrow=classic;html=1;rounded=0;" edge="1" parent="1">
          <mxGeometry width="50" height="50" relative="1" as="geometry">
            <mxPoint x="130" y="180" as="sourcePoint" />
            <mxPoint x="160" y="160" as="targetPoint" />
          </mxGeometry>
        </mxCell>
        <mxCell id="Z4B4hfs42aIyabb2aJls-19" value="" style="endArrow=classic;html=1;rounded=0;" edge="1" parent="1">
          <mxGeometry width="50" height="50" relative="1" as="geometry">
            <mxPoint x="130" y="200" as="sourcePoint" />
            <mxPoint x="150" y="210" as="targetPoint" />
          </mxGeometry>
        </mxCell>
        <mxCell id="Z4B4hfs42aIyabb2aJls-20" value="" style="endArrow=classic;html=1;rounded=0;" edge="1" parent="1" target="Z4B4hfs42aIyabb2aJls-8">
          <mxGeometry width="50" height="50" relative="1" as="geometry">
            <mxPoint x="700" y="190" as="sourcePoint" />
            <mxPoint x="440" y="380" as="targetPoint" />
          </mxGeometry>
        </mxCell>
        <mxCell id="Z4B4hfs42aIyabb2aJls-21" value="" style="endArrow=classic;html=1;rounded=0;entryX=1;entryY=0.5;entryDx=0;entryDy=0;" edge="1" parent="1" target="Z4B4hfs42aIyabb2aJls-9">
          <mxGeometry width="50" height="50" relative="1" as="geometry">
            <mxPoint x="700" y="210" as="sourcePoint" />
            <mxPoint x="440" y="380" as="targetPoint" />
          </mxGeometry>
        </mxCell>
        <mxCell id="4PQ2aQ-R0y5xowy500hf-1" value="Sistema" style="shape=umlActor;verticalLabelPosition=bottom;verticalAlign=top;html=1;" vertex="1" parent="1">
          <mxGeometry x="720" y="530" width="30" height="60" as="geometry" />
        </mxCell>
        <mxCell id="4PQ2aQ-R0y5xowy500hf-2" value="Gerenciar operações aeroportuária" style="ellipse;whiteSpace=wrap;html=1;" vertex="1" parent="1">
          <mxGeometry x="520" y="530" width="140" height="70" as="geometry" />
        </mxCell>
        <mxCell id="5zhSzCAwN-FXXtv1l1Yb-1" value="" style="endArrow=classic;html=1;rounded=0;entryX=1;entryY=0.5;entryDx=0;entryDy=0;" edge="1" parent="1" target="4PQ2aQ-R0y5xowy500hf-2">
          <mxGeometry width="50" height="50" relative="1" as="geometry">
            <mxPoint x="710" y="565" as="sourcePoint" />
            <mxPoint x="440" y="380" as="targetPoint" />
          </mxGeometry>
        </mxCell>
      </root>
    </mxGraphModel>
  </diagram>
  <diagram id="gSYjW0WgnEPpf_29RbQh" name="5 Classes">
    <mxGraphModel dx="1428" dy="777" grid="1" gridSize="10" guides="1" tooltips="1" connect="1" arrows="1" fold="1" page="1" pageScale="1" pageWidth="827" pageHeight="1169" math="0" shadow="0">
      <root>
        <mxCell id="0" />
        <mxCell id="1" parent="0" />
        <mxCell id="vPzFtlTKKLFEfqWsQqYV-1" value="Voo" style="swimlane;fontStyle=1;align=center;verticalAlign=top;childLayout=stackLayout;horizontal=1;startSize=26;horizontalStack=0;resizeParent=1;resizeParentMax=0;resizeLast=0;collapsible=1;marginBottom=0;whiteSpace=wrap;html=1;" vertex="1" parent="1">
          <mxGeometry x="70" y="150" width="160" height="194" as="geometry" />
        </mxCell>
        <mxCell id="vPzFtlTKKLFEfqWsQqYV-2" value="+ Id: Int&lt;div&gt;+ Origem: String&lt;/div&gt;&lt;div&gt;+ Destino: String&amp;nbsp;&lt;/div&gt;&lt;div&gt;+ Horário: String&lt;/div&gt;&lt;div&gt;+ Status: String&lt;/div&gt;&lt;div&gt;&lt;br&gt;&lt;/div&gt;" style="text;strokeColor=none;fillColor=none;align=left;verticalAlign=top;spacingLeft=4;spacingRight=4;overflow=hidden;rotatable=0;points=[[0,0.5],[1,0.5]];portConstraint=eastwest;whiteSpace=wrap;html=1;" vertex="1" parent="vPzFtlTKKLFEfqWsQqYV-1">
          <mxGeometry y="26" width="160" height="134" as="geometry" />
        </mxCell>
        <mxCell id="vPzFtlTKKLFEfqWsQqYV-3" value="" style="line;strokeWidth=1;fillColor=none;align=left;verticalAlign=middle;spacingTop=-1;spacingLeft=3;spacingRight=3;rotatable=0;labelPosition=right;points=[];portConstraint=eastwest;strokeColor=inherit;" vertex="1" parent="vPzFtlTKKLFEfqWsQqYV-1">
          <mxGeometry y="160" width="160" height="8" as="geometry" />
        </mxCell>
        <mxCell id="vPzFtlTKKLFEfqWsQqYV-4" value="+ method(type): type" style="text;strokeColor=none;fillColor=none;align=left;verticalAlign=top;spacingLeft=4;spacingRight=4;overflow=hidden;rotatable=0;points=[[0,0.5],[1,0.5]];portConstraint=eastwest;whiteSpace=wrap;html=1;" vertex="1" parent="vPzFtlTKKLFEfqWsQqYV-1">
          <mxGeometry y="168" width="160" height="26" as="geometry" />
        </mxCell>
        <mxCell id="vPzFtlTKKLFEfqWsQqYV-5" value="Passagem" style="swimlane;fontStyle=1;align=center;verticalAlign=top;childLayout=stackLayout;horizontal=1;startSize=26;horizontalStack=0;resizeParent=1;resizeParentMax=0;resizeLast=0;collapsible=1;marginBottom=0;whiteSpace=wrap;html=1;" vertex="1" parent="1">
          <mxGeometry x="290" y="150" width="160" height="194" as="geometry" />
        </mxCell>
        <mxCell id="vPzFtlTKKLFEfqWsQqYV-6" value="+ Id: Int&lt;div&gt;+ Assento: Int&lt;/div&gt;&lt;div&gt;+ Preço: Double&lt;/div&gt;&lt;div&gt;+ Status: String&lt;/div&gt;&lt;div&gt;&lt;br&gt;&lt;/div&gt;" style="text;strokeColor=none;fillColor=none;align=left;verticalAlign=top;spacingLeft=4;spacingRight=4;overflow=hidden;rotatable=0;points=[[0,0.5],[1,0.5]];portConstraint=eastwest;whiteSpace=wrap;html=1;" vertex="1" parent="vPzFtlTKKLFEfqWsQqYV-5">
          <mxGeometry y="26" width="160" height="134" as="geometry" />
        </mxCell>
        <mxCell id="vPzFtlTKKLFEfqWsQqYV-7" value="" style="line;strokeWidth=1;fillColor=none;align=left;verticalAlign=middle;spacingTop=-1;spacingLeft=3;spacingRight=3;rotatable=0;labelPosition=right;points=[];portConstraint=eastwest;strokeColor=inherit;" vertex="1" parent="vPzFtlTKKLFEfqWsQqYV-5">
          <mxGeometry y="160" width="160" height="8" as="geometry" />
        </mxCell>
        <mxCell id="vPzFtlTKKLFEfqWsQqYV-8" value="+ method(type): type" style="text;strokeColor=none;fillColor=none;align=left;verticalAlign=top;spacingLeft=4;spacingRight=4;overflow=hidden;rotatable=0;points=[[0,0.5],[1,0.5]];portConstraint=eastwest;whiteSpace=wrap;html=1;" vertex="1" parent="vPzFtlTKKLFEfqWsQqYV-5">
          <mxGeometry y="168" width="160" height="26" as="geometry" />
        </mxCell>
        <mxCell id="vPzFtlTKKLFEfqWsQqYV-9" value="Passageiro" style="swimlane;fontStyle=1;align=center;verticalAlign=top;childLayout=stackLayout;horizontal=1;startSize=26;horizontalStack=0;resizeParent=1;resizeParentMax=0;resizeLast=0;collapsible=1;marginBottom=0;whiteSpace=wrap;html=1;" vertex="1" parent="1">
          <mxGeometry x="70" y="390" width="160" height="184" as="geometry" />
        </mxCell>
        <mxCell id="vPzFtlTKKLFEfqWsQqYV-10" value="+ Id: Int&lt;div&gt;+ Nome: String&lt;/div&gt;&lt;div&gt;+ Passaporte: String&lt;/div&gt;" style="text;strokeColor=none;fillColor=none;align=left;verticalAlign=top;spacingLeft=4;spacingRight=4;overflow=hidden;rotatable=0;points=[[0,0.5],[1,0.5]];portConstraint=eastwest;whiteSpace=wrap;html=1;" vertex="1" parent="vPzFtlTKKLFEfqWsQqYV-9">
          <mxGeometry y="26" width="160" height="124" as="geometry" />
        </mxCell>
        <mxCell id="vPzFtlTKKLFEfqWsQqYV-11" value="" style="line;strokeWidth=1;fillColor=none;align=left;verticalAlign=middle;spacingTop=-1;spacingLeft=3;spacingRight=3;rotatable=0;labelPosition=right;points=[];portConstraint=eastwest;strokeColor=inherit;" vertex="1" parent="vPzFtlTKKLFEfqWsQqYV-9">
          <mxGeometry y="150" width="160" height="8" as="geometry" />
        </mxCell>
        <mxCell id="vPzFtlTKKLFEfqWsQqYV-12" value="+ method(type): type" style="text;strokeColor=none;fillColor=none;align=left;verticalAlign=top;spacingLeft=4;spacingRight=4;overflow=hidden;rotatable=0;points=[[0,0.5],[1,0.5]];portConstraint=eastwest;whiteSpace=wrap;html=1;" vertex="1" parent="vPzFtlTKKLFEfqWsQqYV-9">
          <mxGeometry y="158" width="160" height="26" as="geometry" />
        </mxCell>
        <mxCell id="GAXiI6UsoJ_T0r5B8HF3-1" value="Aeronave" style="swimlane;fontStyle=1;align=center;verticalAlign=top;childLayout=stackLayout;horizontal=1;startSize=26;horizontalStack=0;resizeParent=1;resizeParentMax=0;resizeLast=0;collapsible=1;marginBottom=0;whiteSpace=wrap;html=1;" vertex="1" parent="1">
          <mxGeometry x="290" y="390" width="160" height="184" as="geometry" />
        </mxCell>
        <mxCell id="GAXiI6UsoJ_T0r5B8HF3-2" value="+ Id: Int&lt;div&gt;+ Modelo: String&lt;/div&gt;&lt;div&gt;+ Capacidade: String&lt;/div&gt;" style="text;strokeColor=none;fillColor=none;align=left;verticalAlign=top;spacingLeft=4;spacingRight=4;overflow=hidden;rotatable=0;points=[[0,0.5],[1,0.5]];portConstraint=eastwest;whiteSpace=wrap;html=1;" vertex="1" parent="GAXiI6UsoJ_T0r5B8HF3-1">
          <mxGeometry y="26" width="160" height="124" as="geometry" />
        </mxCell>
        <mxCell id="GAXiI6UsoJ_T0r5B8HF3-3" value="" style="line;strokeWidth=1;fillColor=none;align=left;verticalAlign=middle;spacingTop=-1;spacingLeft=3;spacingRight=3;rotatable=0;labelPosition=right;points=[];portConstraint=eastwest;strokeColor=inherit;" vertex="1" parent="GAXiI6UsoJ_T0r5B8HF3-1">
          <mxGeometry y="150" width="160" height="8" as="geometry" />
        </mxCell>
        <mxCell id="GAXiI6UsoJ_T0r5B8HF3-4" value="+ method(type): type" style="text;strokeColor=none;fillColor=none;align=left;verticalAlign=top;spacingLeft=4;spacingRight=4;overflow=hidden;rotatable=0;points=[[0,0.5],[1,0.5]];portConstraint=eastwest;whiteSpace=wrap;html=1;" vertex="1" parent="GAXiI6UsoJ_T0r5B8HF3-1">
          <mxGeometry y="158" width="160" height="26" as="geometry" />
        </mxCell>
        <mxCell id="GAXiI6UsoJ_T0r5B8HF3-5" value="Companhia Aérea" style="swimlane;fontStyle=1;align=center;verticalAlign=top;childLayout=stackLayout;horizontal=1;startSize=26;horizontalStack=0;resizeParent=1;resizeParentMax=0;resizeLast=0;collapsible=1;marginBottom=0;whiteSpace=wrap;html=1;" vertex="1" parent="1">
          <mxGeometry x="530" y="150" width="160" height="184" as="geometry" />
        </mxCell>
        <mxCell id="GAXiI6UsoJ_T0r5B8HF3-6" value="+ Id: Int&lt;div&gt;+ Nome: String&lt;/div&gt;&lt;div&gt;+ Código ICAO: String&lt;/div&gt;" style="text;strokeColor=none;fillColor=none;align=left;verticalAlign=top;spacingLeft=4;spacingRight=4;overflow=hidden;rotatable=0;points=[[0,0.5],[1,0.5]];portConstraint=eastwest;whiteSpace=wrap;html=1;" vertex="1" parent="GAXiI6UsoJ_T0r5B8HF3-5">
          <mxGeometry y="26" width="160" height="124" as="geometry" />
        </mxCell>
        <mxCell id="GAXiI6UsoJ_T0r5B8HF3-7" value="" style="line;strokeWidth=1;fillColor=none;align=left;verticalAlign=middle;spacingTop=-1;spacingLeft=3;spacingRight=3;rotatable=0;labelPosition=right;points=[];portConstraint=eastwest;strokeColor=inherit;" vertex="1" parent="GAXiI6UsoJ_T0r5B8HF3-5">
          <mxGeometry y="150" width="160" height="8" as="geometry" />
        </mxCell>
        <mxCell id="GAXiI6UsoJ_T0r5B8HF3-8" value="+ method(type): type" style="text;strokeColor=none;fillColor=none;align=left;verticalAlign=top;spacingLeft=4;spacingRight=4;overflow=hidden;rotatable=0;points=[[0,0.5],[1,0.5]];portConstraint=eastwest;whiteSpace=wrap;html=1;" vertex="1" parent="GAXiI6UsoJ_T0r5B8HF3-5">
          <mxGeometry y="158" width="160" height="26" as="geometry" />
        </mxCell>
        <mxCell id="GAXiI6UsoJ_T0r5B8HF3-9" value="Pista de pouso" style="swimlane;fontStyle=1;align=center;verticalAlign=top;childLayout=stackLayout;horizontal=1;startSize=26;horizontalStack=0;resizeParent=1;resizeParentMax=0;resizeLast=0;collapsible=1;marginBottom=0;whiteSpace=wrap;html=1;" vertex="1" parent="1">
          <mxGeometry x="530" y="391" width="160" height="184" as="geometry" />
        </mxCell>
        <mxCell id="GAXiI6UsoJ_T0r5B8HF3-10" value="+ Id: Int&lt;div&gt;+ Número: Int&lt;/div&gt;&lt;div&gt;+ Comprimento: Double&lt;/div&gt;&lt;div&gt;+ Status: String&lt;/div&gt;" style="text;strokeColor=none;fillColor=none;align=left;verticalAlign=top;spacingLeft=4;spacingRight=4;overflow=hidden;rotatable=0;points=[[0,0.5],[1,0.5]];portConstraint=eastwest;whiteSpace=wrap;html=1;" vertex="1" parent="GAXiI6UsoJ_T0r5B8HF3-9">
          <mxGeometry y="26" width="160" height="124" as="geometry" />
        </mxCell>
        <mxCell id="GAXiI6UsoJ_T0r5B8HF3-11" value="" style="line;strokeWidth=1;fillColor=none;align=left;verticalAlign=middle;spacingTop=-1;spacingLeft=3;spacingRight=3;rotatable=0;labelPosition=right;points=[];portConstraint=eastwest;strokeColor=inherit;" vertex="1" parent="GAXiI6UsoJ_T0r5B8HF3-9">
          <mxGeometry y="150" width="160" height="8" as="geometry" />
        </mxCell>
        <mxCell id="GAXiI6UsoJ_T0r5B8HF3-12" value="+ method(type): type" style="text;strokeColor=none;fillColor=none;align=left;verticalAlign=top;spacingLeft=4;spacingRight=4;overflow=hidden;rotatable=0;points=[[0,0.5],[1,0.5]];portConstraint=eastwest;whiteSpace=wrap;html=1;" vertex="1" parent="GAXiI6UsoJ_T0r5B8HF3-9">
          <mxGeometry y="158" width="160" height="26" as="geometry" />
        </mxCell>
        <mxCell id="GAXiI6UsoJ_T0r5B8HF3-14" style="edgeStyle=orthogonalEdgeStyle;rounded=0;orthogonalLoop=1;jettySize=auto;html=1;exitX=0.5;exitY=0;exitDx=0;exitDy=0;entryX=0.5;entryY=1.038;entryDx=0;entryDy=0;entryPerimeter=0;" edge="1" parent="1" source="vPzFtlTKKLFEfqWsQqYV-9" target="vPzFtlTKKLFEfqWsQqYV-4">
          <mxGeometry relative="1" as="geometry" />
        </mxCell>
        <mxCell id="GAXiI6UsoJ_T0r5B8HF3-15" style="edgeStyle=orthogonalEdgeStyle;rounded=0;orthogonalLoop=1;jettySize=auto;html=1;exitX=1;exitY=0.5;exitDx=0;exitDy=0;entryX=0;entryY=0.5;entryDx=0;entryDy=0;" edge="1" parent="1" source="vPzFtlTKKLFEfqWsQqYV-2" target="vPzFtlTKKLFEfqWsQqYV-6">
          <mxGeometry relative="1" as="geometry" />
        </mxCell>
        <mxCell id="GAXiI6UsoJ_T0r5B8HF3-16" value="" style="endArrow=classic;html=1;rounded=0;exitX=0.456;exitY=0.962;exitDx=0;exitDy=0;exitPerimeter=0;entryX=0.5;entryY=0;entryDx=0;entryDy=0;" edge="1" parent="1">
          <mxGeometry width="50" height="50" relative="1" as="geometry">
            <mxPoint x="1390" y="830.002" as="sourcePoint" />
            <mxPoint x="1390.04" y="876.99" as="targetPoint" />
          </mxGeometry>
        </mxCell>
        <mxCell id="GAXiI6UsoJ_T0r5B8HF3-17" value="" style="endArrow=classic;html=1;rounded=0;exitX=0.5;exitY=1.154;exitDx=0;exitDy=0;exitPerimeter=0;entryX=0.5;entryY=0;entryDx=0;entryDy=0;" edge="1" parent="1" source="vPzFtlTKKLFEfqWsQqYV-8" target="GAXiI6UsoJ_T0r5B8HF3-1">
          <mxGeometry width="50" height="50" relative="1" as="geometry">
            <mxPoint x="390" y="430" as="sourcePoint" />
            <mxPoint x="440" y="380" as="targetPoint" />
          </mxGeometry>
        </mxCell>
        <mxCell id="GAXiI6UsoJ_T0r5B8HF3-18" style="edgeStyle=orthogonalEdgeStyle;rounded=0;orthogonalLoop=1;jettySize=auto;html=1;exitX=1;exitY=0.5;exitDx=0;exitDy=0;entryX=0;entryY=0.5;entryDx=0;entryDy=0;" edge="1" parent="1" source="GAXiI6UsoJ_T0r5B8HF3-2" target="GAXiI6UsoJ_T0r5B8HF3-6">
          <mxGeometry relative="1" as="geometry" />
        </mxCell>
        <mxCell id="GAXiI6UsoJ_T0r5B8HF3-19" value="" style="endArrow=classic;html=1;rounded=0;entryX=0.5;entryY=0;entryDx=0;entryDy=0;" edge="1" parent="1">
          <mxGeometry width="50" height="50" relative="1" as="geometry">
            <mxPoint x="610" y="334" as="sourcePoint" />
            <mxPoint x="610" y="392" as="targetPoint" />
          </mxGeometry>
        </mxCell>
      </root>
    </mxGraphModel>
  </diagram>
</mxfile>
